<svg xmlns="http://www.w3.org/2000/svg" viewBox="0 0 1200 1230"><defs><style>.cls-1{fill:none;}.cls-2{fill:#9f9d9c;}</style></defs><g id="Layer_2" data-name="Layer 2"><g id="svg2"><rect class="cls-1" width="1200" height="1230"/><path class="cls-2" d="M843.27,584.28a55.52,55.52,0,0,0-5.17-3.47,4.26,4.26,0,0,1-2.41-4.26c.09-4-.08-8,.06-12a5.69,5.69,0,0,0-2.26-5c-1.73-1.41-3.45-2.84-5.16-4.27-3.92-3.28-7.81-6.58-11.75-9.83-1.87-1.54-2-1.63-3.62-.15a7.17,7.17,0,0,1-7.48,1.77c-1.21-.36-2.49-.49-3.73-.8a3.69,3.69,0,0,0-3.6.61c-2.88,2.53-5.87,1.79-8.9.31a3.37,3.37,0,0,1-2.27-2.84,5.66,5.66,0,0,0-2-3.67c-1.34-1.38-2.65-2.78-4.08-4.06a10.34,10.34,0,0,1-3.61-6,9.74,9.74,0,0,0-5.75-7.21,22.15,22.15,0,0,0-4.44-1.75,5.94,5.94,0,0,1-4.35-3.95c-1.21-3-2.64-5.82-4-8.72a10.13,10.13,0,0,0-3-3.64,80.41,80.41,0,0,0-8-5.27,22.52,22.52,0,0,1-9.84-11.89c-1.26-3.63-3.89-6.18-8.36-5.58-3.76.5-6.42-1.41-8.54-4.27-.57-.77-1-1.61-1.56-2.41h-.6A12.27,12.27,0,0,0,713,474a4.33,4.33,0,0,0-1.94-1.82l-.08-.11-.71-.88c-.25-3.32-.58-6.66.69-9.86a8.12,8.12,0,0,0-1.06-8.05c-.7-1-1.28-2.19-2-3.2-1.69-2.29-3.45-4.52-5.18-6.77l-1.18-1h0a1.22,1.22,0,0,0-1-1,3.26,3.26,0,0,0-2-2.85v0h0l-.95-1.14c-.35-.72-.83-1.57.07-2.07,1.73-1,2-2.16,1.27-3.95a9.17,9.17,0,0,0-2.06-3.66,15.1,15.1,0,0,1-3.15-4.7,2.17,2.17,0,0,0-.83-1.73l-.07-.13c-.48-2.66-1-5.31-1.42-8-.29-1.72-.5-3.45-.84-5.16a2.1,2.1,0,0,0-1.45-1.75,1.48,1.48,0,0,0-1.71.44c-1.26.22-2.51.51-3.77.62-.36,0-1.06-.4-1.09-.68-.34-2.67-.88-5.38.66-7.9a10.76,10.76,0,0,0,1.91-6.33c-.23-3,1.07-5.19,3.24-7,1.08-2.65.49-5.37.33-8.07a14.82,14.82,0,0,1,1.26-2.52c1.52-2,3.15-4,4.75-5.92,2.32-2.85,4.66-5.67,3.87-9.75a1.32,1.32,0,0,1,0-.48,1.68,1.68,0,0,1,1.51-1.57c1.26-.12,2.53-.17,3.79-.18,4.13,0,8.16-.85,12.22-1.39.75-1,.44-2.15.45-3.24,0-8.14-.23-16.26-.67-24.39-.45-8.29-.22-16.61-.26-24.92a20.14,20.14,0,0,0-1.52-8.33,4.42,4.42,0,0,0-2.48-2.13c-2.32-1.05-4.68-2-7-3.16C673.48,273.9,642.53,258,611.13,243q-11.24-5.37-22.29-11.12c-2.88-1.5-5.59-2.1-8.66-.76-1.3.57-2.79.67-4.13,1.17-3,1.11-6.22,1.4-9.06,2.95.56,3.17.28,6.38.29,9.57,0,4-.23,8-.06,12,.37,8.76,3.54,15.86,12.2,19.47l.44.19c2.87,1.47,2.87,1.47,1.77,4.29-.35.89-.73,1.77-1,2.68-.65,1.8-1.6,3.56-1.82,5.42-1.09,9-2,18.08-2.94,27.13-.68,6.51-1.35,13-2,19.53a5.55,5.55,0,0,1-1.59,3.37c-2.7,2.95-5.35,5.94-8,8.91-5.55,6.18-11.09,12.38-16.68,18.53a7.3,7.3,0,0,0-2,3.73,8.59,8.59,0,0,1-3.31,5.63,4.85,4.85,0,0,0-1.76,4.74c.52,3.46,1.18,6.86,3.42,9.82a92.1,92.1,0,0,0,7,7.88c.7.73,1.25,1.57.56,2.55-1,1.35-.65,2.71-.26,4.12.51,1.85,1.06,3.69,1.42,5.57a4.15,4.15,0,0,0,2.29,3.4,3.87,3.87,0,0,1,2.07,2.51c1.57,5.4,0,11.41-5.13,14.11a43.86,43.86,0,0,1-4.33,2.05,10,10,0,0,0-5.06,4.21c-.83,1.36-1.69,2.71-2.45,4.11-2.54,4.67-4,9.75-5.49,14.8-1.58,5.36-3.1,10.74-4.63,16.12-.44,1.56-.9,3.1-2.53,3.86-4,1.86-6.24,5.35-8.23,9a145.3,145.3,0,0,0-6.47,15c-1.6,4-3.35,7.95-5,11.93a3.4,3.4,0,0,1-3.4,2.11,9.17,9.17,0,0,1-7.41-2.69c-1.12-1.14-2.28-2.25-3.33-3.45a3.89,3.89,0,0,0-3.82-1.49c-3.95.75-7.95.6-11.94.86-1.86.12-2.33.38-2.57,2.19a5,5,0,0,1-2.45,3.81,25.16,25.16,0,0,0-7.35,8.1,85.5,85.5,0,0,0-4.87,10.4c-1.51,3.51-2.48,7.27-4.75,10.44.53,1.94,1.4,3.74,3.54,4.14A5.56,5.56,0,0,1,464,550a6.29,6.29,0,0,0,1.2,2.06c2.08,2.43,4.42,4.21,7.9,2.84a4.38,4.38,0,0,1,1.4-.24c1.38-.08,2.63,1.54,1.77,2.52-1.7,2-1,3.43.36,5,.62.74,1.15,1.54,1.82,2.23a7.58,7.58,0,0,1,2,7.45,95,95,0,0,0-1.52,11.39,15.87,15.87,0,0,1-2.13,6.76c-1.8,3.2-3.44,6.5-5.09,9.78-.83,1.66-.72,1.86.87,3.17a2.09,2.09,0,0,0,.39.27c2.12,1.08,2.32,2.72,1.66,4.83s-1,4-1.42,6.06a2.32,2.32,0,0,0,1.33,2.77c1.41.75,2.83,1.49,4.21,2.29.52.31,1.11.72.88,1.49s-.91.78-1.55.64c-1.87-.39-3.73-.86-5.61-1.21a1.51,1.51,0,0,0-1.81,1.19,15.87,15.87,0,0,0-.5,2.82c-.37,4.15-1.85,7.7-5.39,10.17a9.72,9.72,0,0,0-1,1,2.39,2.39,0,0,0-.64,3c1.86,4.6,3.67,9.2,5.4,13.84a15.36,15.36,0,0,0,3.67,5.52c5.85,5.9,11.51,12,17.46,17.81,10.22,10,18.38,21.67,27.21,32.81a5.24,5.24,0,0,1,1.41,3.48,16.21,16.21,0,0,0,2.08,8.72,6.58,6.58,0,0,1,.5,1.84c1,5.41,3.36,10.3,6,15.1,2.13,3.93,4.3,7.85,6.22,11.89a45.74,45.74,0,0,1,4.65,19.42c0,2.32-.06,4.44-2.08,6-1.18.93-1.06,2.15-.66,3.49A122.3,122.3,0,0,0,539.15,791a23.28,23.28,0,0,0,5.35,8.43,5.23,5.23,0,0,1,1.65,5.18c-.74,4.57-1.35,9.16-2.21,13.7-.76,4.08-1.77,8.11-2.71,12.15a4.32,4.32,0,0,1-3.7,3.75,8.38,8.38,0,0,0-6.52,6.37,6.2,6.2,0,0,1-2.23,3.58,11,11,0,0,0-3.76,6c-1.64,5.51-3.4,11-4.83,16.56-1.52,5.87-2.68,11.83-4.05,17.73-.35,1.53-.3,3.36-1.8,4.28-1.83,1.13-1.91,2.8-1.9,4.59,0,1.6.07,3.2,0,4.79-.06,2,.67,4.16-1.62,5.58-.68.42-.48,1.47-.44,2.26a18.17,18.17,0,0,0,1.32,7c1.37.2,2.46-.52,3.59-1.1s2.33-1.32,3.61-1.06c2.42.49,4.13-.34,6-1.93a11.24,11.24,0,0,1,11.66-2,24.59,24.59,0,0,1,9.68,6,5.46,5.46,0,0,0,4.68,1.84c.79-.06,1.59,0,2.39,0,10.36-.37,20.71.09,31.09-.6,9.06-.61,18.19-.17,27.29-.18,2.71,0,5.55-.43,8.1.22,2.76.7,4.7,3.17,6.87,5a5.22,5.22,0,0,0,3,1.38c2.53.28,5.06.65,7.58,1,5.53.72,11.06,1.42,16.59,2.18,5.83.8,11.66,1.7,17.5,2.46a18,18,0,0,0,7.09-.53c6.62-1.77,13.31-3.26,20-4.88,1-.26,2.27-.06,3.12-1-.55-1.62-1.94-2.51-3.12-3.55-4.08-3.58-8.12-7.21-12.31-10.64a7.32,7.32,0,0,1-2.95-7.12,25.74,25.74,0,0,0,0-3.83c-.36-14.86.94-29.69,1-44.54,0-2.24,0-4.48.09-6.72.08-2,.49-2.38,2.66-2.47.64,0,1.28,0,1.92,0,3.82.13,7.62.22,11.45.62,5.22.53,10.53.19,15.81.21a1.24,1.24,0,0,0,.47-.06c.7-.25,1.14-.87.63-1.41-1.77-1.87-1.53-4.13-1.35-6.34.23-2.7.64-5.37.95-8.06.41-3.65.57-7.33,1.27-10.92.47-2.38.53-4.75.82-7.12.23-1.81,1-2.42,2.88-2.5s2.26.27,2.73,1.94c.38,1.38.66,2.79,1.06,4.17s1.05,1.85,2.48,1.58c1.25-.22,2.46-.65,3.69-1s2.44-.75,3.68-1a2,2,0,0,1,2.45,1c2.55,5.21,7.26,8,12.18,10.31,4.13,2,8.47,2.85,12.67-.1a14.52,14.52,0,0,1,1.72-.86c2.11-1.12,3.92-.92,5.52,1A22.17,22.17,0,0,0,783.88,830a4.64,4.64,0,0,1,3.7,2.67,41.46,41.46,0,0,0,4.53,6.75,11.62,11.62,0,0,0,8.37,5.07c3.67.3,7.32.19,10.39,2.73.56.47,1.64-.29,1.68-1.12a10.91,10.91,0,0,0,0-3.33c-.71-2.69-.53-5.4-.6-8.11,0-.95,0-1.91-.11-2.87a1.18,1.18,0,0,0-1.62-1.18,14.66,14.66,0,0,1-7.09,0c-3.8-.89-6.39-3.44-9-6a4.59,4.59,0,0,1-1.28-4.82,60.41,60.41,0,0,1,3.26-10c3.8-8.17,4-9.17,3.24-18a36.38,36.38,0,0,0-1.28-8c-1.5-4.72-.17-8.76,2.07-12.8a6.14,6.14,0,0,1,4.36-3.3c7.61-1.76,15.17-3.74,22.75-5.62a10.47,10.47,0,0,0,4.39-1.67c-.09-.56-.14-1-.25-1.48-1.65-7.22-5.61-13.22-10.32-18.7a32.72,32.72,0,0,1-7.3-14.85A167.32,167.32,0,0,1,810.6,706a129.44,129.44,0,0,1,0-24.82c.52-5.37-.64-10.51-5.49-14a18,18,0,0,1-1.82-1.56c-1.12-1.07-1.25-1.54-.36-2.91a97.92,97.92,0,0,1,9.53-13.18c1.4-1.53,2.67-3.18,4-4.75a4.66,4.66,0,0,0,1.17-3c.28-6.85.6-13.7.89-20.56a21.18,21.18,0,0,0,0-2.39,7.39,7.39,0,0,1,1.48-4.92c2.21-3.13,4.3-6.35,6.33-9.6a39.34,39.34,0,0,1,8.69-9.47c3-2.43,5.66-5.17,8.42-7.83C844.63,585.82,844.56,585.19,843.27,584.28Z"/></g></g></svg>