<svg xmlns="http://www.w3.org/2000/svg" viewBox="0 0 1200 1230"><defs><style>.cls-1{fill:none;}.cls-2{fill:#9f9d9c;}</style></defs><g id="Layer_2" data-name="Layer 2"><g id="svg2"><rect class="cls-1" width="1200" height="1230"/><path id="Southern_Africa" data-name="Southern Africa" class="cls-2" d="M701.48,919.66c3.4.12,6.62-1,9.93-1.45,4.58-.65,9.13-1.48,13.67-2.38a4,4,0,0,1,4.74,2.19c1.09,2,2.23,3.87,3.24,5.87s1.88,4.05,2.76,6.1a25.87,25.87,0,0,0,4.16,7,5.94,5.94,0,0,1,1.72,2.83c.5,3,2.24,5.27,4,7.53,2.76,3.51,5.65,6.92,8.49,10.38a8.85,8.85,0,0,0,4.27,2.95,11,11,0,0,1,5.69,4.17,14.23,14.23,0,0,0,6.73,5.19c1.55.55,1.85,1.5,1.73,2.92a23.89,23.89,0,0,0,.83,8.54,27.18,27.18,0,0,0,2,5.35c1.75,3.3,4.45,5.43,8.36,5.52a19,19,0,0,1,10.72,3.59,8,8,0,0,0,3.48,1.44c4.57.7,9.16,1.36,13.25,3.79a3.51,3.51,0,0,0,2.79.11c6.94-1.74,11.95,2,16.86,6a3.73,3.73,0,0,1,1.09,3c.32,8.45.62,16.9,1,25.36q.84,20.08,1.75,40.18c0,.48,0,1,.1,1.43a1.54,1.54,0,0,0,1.57,1.47c2.87.13,5.73.2,8.6.3a5.82,5.82,0,0,1,.18,1.87,173.77,173.77,0,0,1-4.66,17.08,47.38,47.38,0,0,1-3.8,8.25,23.1,23.1,0,0,1-8.64,8.77,30.85,30.85,0,0,0-6.1,4.59q-38.58,35.91-77.19,71.8a17.34,17.34,0,0,0-1.39,1.32,5.41,5.41,0,0,1-4.73,1.76c-2.71-.18-5.42-.2-8.13-.33-2.37-.12-3.56-.08-4.05,2.81a1.77,1.77,0,0,1-2.31,1.7c-1.1-.18-2.2-.42-3.31-.53-2.6-.27-5.14-.19-7.11,1.91a3,3,0,0,1-3.06.81c-2.49-.53-5-1.09-7.5-1.51-2.83-.47-5.68-.84-8.53-1.18-2.44-.29-4.68,1.2-7.06,1-2.2-.17-4.06-1.83-6.42-1.69-1.75.11-3.51,0-5.26,0-2.72.07-5,1-6.27,3.6-.82,1.64-2.32,2-4,2-3.35,0-6.71,0-10.06.12-2.07,0-4.14.16-6.2.36a6,6,0,0,0-4.18,2.08,1.62,1.62,0,0,0-.38,1.74H642c-3-1.14-6.26-.85-9.4-1.09-2.22-1.56-4.4-3.19-6.66-4.68a25.87,25.87,0,0,1-8.92-9.83c-1.46-2.84-2.82-5.73-4.3-8.55-1-1.84-2.09-3.58-3.1-5.39a2.23,2.23,0,0,1,1.64-3.56c.62-.12,1.29,0,1.9-.21,2.06-.54,3-1.56,3-3.76,0-2.87,0-5.75-.23-8.62a19.43,19.43,0,0,0-2.28-7.26q-11.77-23.57-23.46-47.17a18.65,18.65,0,0,0-3-4.28c-5-5.58-10-11.23-15.08-16.74a11,11,0,0,1-2.85-5.9q-1.45-9-3.07-17.94a17.69,17.69,0,0,0-1.13-4.15,17.07,17.07,0,0,1-1.21-9.85,13.49,13.49,0,0,0-1.54-8.3c-1.62-3.3-3.58-6.55-4.43-10.05-.81-3.34-.38-7-.51-10.5-.18-5.11-.42-10.21-.55-15.32a11.33,11.33,0,0,0-1.52-5.44Q539,970.05,522.84,941.2a16.26,16.26,0,0,0-3.23-4.11,21.23,21.23,0,0,1-6.6-11.45c-.89-4.18-2.14-8.37-1.29-12.74,1.37.2,2.45-.52,3.58-1.1s2.33-1.32,3.62-1.06c2.42.49,4.13-.34,6-1.93a11.24,11.24,0,0,1,11.66-2,24.66,24.66,0,0,1,9.68,6,5.45,5.45,0,0,0,4.67,1.84c.8-.06,1.6,0,2.4,0,10.35-.37,20.71.09,31.08-.6,9.07-.61,18.2-.17,27.3-.18,2.71,0,5.54-.43,8.1.22,2.75.7,4.69,3.17,6.86,5a5.25,5.25,0,0,0,3,1.38c2.53.28,5.05.65,7.58,1,5.53.72,11.06,1.42,16.59,2.18,5.83.8,11.65,1.7,17.5,2.46a18,18,0,0,0,7.09-.53c6.62-1.77,13.31-3.26,20-4.88C699.42,920.39,700.64,920.59,701.48,919.66Z"/></g></g></svg>