<svg xmlns="http://www.w3.org/2000/svg" viewBox="0 0 1200 1230"><defs><style>.cls-1{fill:none;}.cls-2{fill:#9f9d9c;}</style></defs><g id="Layer_2" data-name="Layer 2"><g id="svg2"><rect class="cls-1" width="1200" height="1230"/><path id="Western_Africa" data-name="Western Africa" class="cls-2" d="M55.51,249.41c.64-.71,1.28-1.42,1.9-2.14a5.3,5.3,0,0,1,4.69-1.85c8.77.55,17.55,1,26.32,1.51,9.09.53,18.18,1.1,27.27,1.65a17.57,17.57,0,0,0,1.92,0c1.21-.06,1.6-.86,1.61-1.92,0-2.56,0-5.12,0-7.68a84,84,0,0,1,.51-12c1-6.54,4.56-10.73,10.89-12.6a43.92,43.92,0,0,1,7.53-1.37c2.36-.26,2.54-.4,2.81-2.44q2-14.73,3.92-29.47c.44-3.32.81-6.66,1.32-10,.32-2.08.8-2.47,2.85-2.32,4.94.38,9.87.85,14.8,1.28l28.65,2.51c.79.07,1.59.13,2.39.14,2.14,0,2.55-.28,2.84-2.31.65-4.58,1.25-9.18,1.87-13.77a11.43,11.43,0,0,1,.26-1.42.93.93,0,0,1,1.47-.62,21.42,21.42,0,0,1,2.74,1.92Q272,208.38,339.81,260.19c1.78,1.37,3.51,2.62,3.94,5.14.24,1.41,1.73,2.27,2.94,3a20.8,20.8,0,0,1,7,7.08,5.31,5.31,0,0,0,4.62,3,4.64,4.64,0,0,1,3.34,1.65,7.33,7.33,0,0,0,6.13,2.09c3-.22,5.12,1.37,6.87,3.65a8.25,8.25,0,0,1,1.37,7.27,34.14,34.14,0,0,0-1,4.17,3.18,3.18,0,0,0,3.34,3.76,11.18,11.18,0,0,0,1.91-.15A183.47,183.47,0,0,0,411,293.65a40.36,40.36,0,0,0,9.45-4.55q44.44-29.28,89-58.49c.66-.44,1.37-.83,2-1.32a10.42,10.42,0,0,1,7.14-2.12q16.29.63,32.59,1a9.46,9.46,0,0,1,6.49,2.62,20.75,20.75,0,0,1,3,3.11,3.84,3.84,0,0,0,5,1.58,8.36,8.36,0,0,1,1.41-.27c.56,3.17.27,6.38.29,9.57,0,4-.23,8-.06,12,.37,8.76,3.54,15.86,12.2,19.47l.44.19c2.87,1.47,2.87,1.47,1.77,4.29-.35.89-.74,1.77-1.06,2.68-.64,1.8-1.59,3.56-1.82,5.42-1.08,9-2,18.08-2.93,27.13-.68,6.51-1.36,13-2,19.53a5.55,5.55,0,0,1-1.59,3.37c-2.7,2.95-5.35,5.94-8,8.91-5.55,6.18-11.09,12.38-16.68,18.53a7.3,7.3,0,0,0-2,3.73,8.59,8.59,0,0,1-3.31,5.63,4.81,4.81,0,0,0-1.76,4.74c.52,3.46,1.17,6.86,3.42,9.82a90.42,90.42,0,0,0,7,7.88c.7.73,1.24,1.57.55,2.55-1,1.35-.64,2.71-.25,4.12.51,1.85,1.06,3.69,1.41,5.57a4.19,4.19,0,0,0,2.29,3.4,3.84,3.84,0,0,1,2.07,2.51c1.57,5.4.06,11.41-5.13,14.11a43.69,43.69,0,0,1-4.32,2.05,10,10,0,0,0-5.06,4.21c-.84,1.36-1.69,2.71-2.45,4.11-2.54,4.67-4,9.75-5.49,14.8-1.58,5.36-3.1,10.74-4.63,16.12-.44,1.56-.9,3.1-2.53,3.86-4,1.86-6.24,5.35-8.23,9a145.3,145.3,0,0,0-6.47,15c-1.6,4-3.35,7.95-5,11.93a3.4,3.4,0,0,1-3.4,2.11,9.17,9.17,0,0,1-7.41-2.69c-1.12-1.14-2.28-2.25-3.33-3.45a3.89,3.89,0,0,0-3.82-1.49c-3.95.75-8,.6-11.94.86-1.86.12-2.33.38-2.57,2.19a5,5,0,0,1-2.45,3.81,25.16,25.16,0,0,0-7.35,8.1,85.5,85.5,0,0,0-4.87,10.4c-1.51,3.51-2.49,7.27-4.75,10.44-2.82,0-3,.1-3.5,2.09-.17.62-.19,1.27-.34,1.89-.37,1.42-.89,1.94-2.35,1.8-3.66-.33-7.41-.1-10.91-1.36-2.9-1-5.46-1-8.1.8a18.75,18.75,0,0,1-6.7,2.53,13.14,13.14,0,0,1-13.79-4.52,23.86,23.86,0,0,1-4.13-7c-.75-1.94-1.36-3.93-2.1-5.87-2.67-7-7.25-12.32-14.28-15.34a17.7,17.7,0,0,0-7.43-1.53c-6.55.12-13.11.12-19.67.08-4.18,0-8.23,1-12.37,1.36-4.65.37-9,1.93-13.49,3.18-1.84.52-3.17,1.27-3.87,3.12a2.84,2.84,0,0,1-3.34,2.1c-4.09-.78-7.93.5-11.79,1.43a77.24,77.24,0,0,0-17.77,7.09c-4.67,2.45-9.4,4.79-14,7.32a8.2,8.2,0,0,1-7.75.39c-3.37-1.46-6.93-2.46-10.31-3.88a42.78,42.78,0,0,0-11.62-2.69c-2.85-.33-5.71-.62-8.57-1a16.3,16.3,0,0,0-6.61.59c-14.43,4.17-28.92,8.1-43.31,12.37a22.34,22.34,0,0,1-13.13-.34A54,54,0,0,1,163.7,535c-11.72-10.15-23.94-19.73-35.9-29.6a48.16,48.16,0,0,0-11.17-7.34c-1.46-.64-2.85-1.43-4.29-2.14a9.76,9.76,0,0,1-4.66-3.9c-1.39-2.41-3.82-3.84-6.23-5.12a3.75,3.75,0,0,1-2.38-3.29,6.63,6.63,0,0,0-3.56-5.38,4.76,4.76,0,0,1-2.42-4.81c0-.8-.12-1.6-.08-2.4.46-9.15-4.1-16.17-9.75-22.68a9,9,0,0,0-3-2.32c-3.63-1.59-5.17-4.58-5.91-8.19-.31-1.5,0-3.16-2.15-3.83-.94-.29-.33-2.18-1.7-2.88-.4.31-.9.64-1.34,1a2.36,2.36,0,0,1-2.65.51c-.89-.37-.89-1.19-1-2-.26-1.91-1.83-3-3-4.17a6.25,6.25,0,0,1-2-5.56,27.2,27.2,0,0,0,0-5.26c-.09-1.3-1.24-1.83-2.46-1.23-.71.35-1.36.84-2.05,1.23-1.72,1-1.83,1.05-3.08-.59a4.49,4.49,0,0,0-3.11-2c-1.55-.21-2.7-.71-2.72-2.64s-1.22-2.87-3-3.22a11.35,11.35,0,0,0-1.42-.23C41,407,40.46,406,40,404.64a14.71,14.71,0,0,1-.84-4.69A27.9,27.9,0,0,1,41.8,386.9c2.24-4.45,1.77-8.57-.34-12.83a71.67,71.67,0,0,0-6.81-11c-.53-.7-1.18-1.05-2-.44v-1.92c.45,0,1.1.3,1.33.09,3.41-3.11,6.86-6.2,10.12-9.47a12.62,12.62,0,0,0,4.05-8.92,14.62,14.62,0,0,1,2.46-7.66,46.09,46.09,0,0,0,4.56-10c1.39-4.07,2.88-8.11,4.4-12.14a15.48,15.48,0,0,0,1-5.13c.16-5.74.37-11.47.67-17.21A10.22,10.22,0,0,0,59.56,284c-3-4.73-3.57-4.08.42-9,3.67-4.5,4-9.57,2.09-14.9-.32-.88-.64-2-1.76-2.05-1.79-.16-2.35-1.32-2.79-2.79C56.92,253.31,56.19,251.37,55.51,249.41Z"/></g></g></svg>