<svg xmlns="http://www.w3.org/2000/svg" viewBox="0 0 1200 1230"><defs><style>.cls-1{fill:none;}.cls-2{fill:#9f9d9c;}</style></defs><g id="Layer_2" data-name="Layer 2"><g id="svg2"><rect class="cls-1" width="1200" height="1230"/><path id="Eastern_Africa" data-name="Eastern Africa" class="cls-2" d="M1169.75,436.56c-2.21,1.65-2.86,3.8-3,6.57-.27,4.77-1,9.51-.9,14.31a4.42,4.42,0,0,1-1.54,3.39,16.5,16.5,0,0,0-4.3,7.36,19.59,19.59,0,0,1-3.91,7.1c-2.94,3.37-4.29,7.41-5.7,11.48-3.71,10.7-7.47,21.4-11.1,32.13a17.53,17.53,0,0,1-3.29,5.75c-5.82,7-11.25,14.29-15.29,22.53a32.83,32.83,0,0,1-6.52,8.82c-4.75,4.73-9.15,9.83-14.61,13.82a3.55,3.55,0,0,0-1.47,1.83c-.42,2.25-2.07,3.53-3.54,5-3.29,3.26-6.62,6.49-9.91,9.76-1.51,1.49-3.13,2.79-5.38,2.77a4.81,4.81,0,0,0-3.76,1.8,3.64,3.64,0,0,1-.34.34l-28,26.87a32.57,32.57,0,0,1-4.66,4.11,8.34,8.34,0,0,0-2.11,2c-3,3.95-6.69,7.3-10,11-3.6,4.06-7.09,8.21-10.67,12.28-1.05,1.2-2,2.45-3,3.71-1.84,2.37-3.57,5-7,5.36a2.78,2.78,0,0,0-2.15,1.71c-.51,1-1,2-1.58,3-1.57,2.69-3.49,5-6.7,5.78-1.42.34-2,1.43-2.61,2.6q-3,6-6,12c-3.57,7.14-7,14.35-11.95,20.72-1.41,1.81-2,4.32-2.81,6.56-1.87,5.09-3.47,10.29-5.55,15.3-1.72,4.11-.73,7.47,1.95,10.57,1.67,1.93,3.58,3.65,5.36,5.49a36.36,36.36,0,0,1,2.85,3.23,2.85,2.85,0,0,1,.07,3.89c-2.1,2.77-2.54,6.14-2.72,9.51-.09,1.6,0,3.2,0,4.8,0,.79.1,1.91-.35,2.29-2,1.7-1,3.44-.3,5.17.39,1,1,2,1.43,3,.33.73.93,1.5.88,2.21-.25,3.56,1.69,6.39,2.84,9.51,1.2,3.27,2.38,6.63,2.29,10.22a4.33,4.33,0,0,0,2.23,4c1.07.69,2.09,1.48,3.19,2.12a12.55,12.55,0,0,1,3.75,18c-1.07,1.59-1.84,3.39-3,4.89a8.53,8.53,0,0,0-1.58,5.86c.08,3.36.06,6.72.08,10.08,0,.64,0,1.28,0,1.92a22.47,22.47,0,0,1-.78,6.6c-.62,2.15,1.09,4.26.74,6.57a55,55,0,0,0-.93,9.51,11.82,11.82,0,0,0,1.75,6.77c2.11,3.17,1.75,6.72,0,10a50.54,50.54,0,0,1-2.91,4.39,2.64,2.64,0,0,0-.36,2.7,6.34,6.34,0,0,1,.57,1.81c.15,1.65,0,3.18-1.76,4.08a7.64,7.64,0,0,0-2.25,1.75,54.17,54.17,0,0,1-9.09,7.75c-1.24.91-2.28,1.77-2.13,3.44a3,3,0,0,1-1.83,3,67.85,67.85,0,0,0-11.66,8.34,6.17,6.17,0,0,1-4.88,1.61,15.1,15.1,0,0,0-8.27,1.93c-6.17,3.05-12.31,6.14-18.48,9.16-1.49.73-2.73,1.54-3.13,3.33a3.13,3.13,0,0,1-2.5,2.65c-2.24.24-3.17,1-2.33,3.3a.55.55,0,0,1-.14.44c-2,2.28-3.92,4.59-6,6.78-.62.64-1.53.26-2.06-.45a1.45,1.45,0,0,0-2.41-.28c-4.26,3.6-8.54,7.19-12.79,10.81-2.67,2.28-5.36,4.54-7.94,6.91a12.43,12.43,0,0,0-2.7,3.32c-2.11,4.08-1.43,8.29,2.15,11.26a6.36,6.36,0,0,1,2.49,4.81c.49,5.07,1.18,10.12,2,15.15.32,2.17.66,4.41,3,5.68,1.16.64.89,2,.63,3.08-.82,3.41-1.77,6.79-2.67,10.18-.95,3.54-1.94,7.07-2.82,10.63-.4,1.59-.45,3,1.33,4.15,1.52,1,1.42,1.31.52,2.72-1.11,1.75-2.21,3.53-3.45,5.18a19.2,19.2,0,0,1-8.57,6.69c-9.39,3.58-18.73,7.29-28.09,10.94-4.56,1.78-6.91,5.27-7,10.34a1.8,1.8,0,0,0,2,2.08c1.24,0,1.61.76,1.26,1.94-.59,2-1.11,4-1.75,6-.13.39-.65.66-1,1-2.87-.1-5.73-.17-8.6-.3a1.54,1.54,0,0,1-1.57-1.47c-.06-.47-.08-1-.1-1.43q-.88-20.08-1.75-40.18c-.36-8.46-.66-16.91-1-25.36a3.73,3.73,0,0,0-1.09-3c-4.91-4-9.92-7.73-16.86-6a3.51,3.51,0,0,1-2.79-.11c-4.09-2.43-8.68-3.09-13.25-3.79a8,8,0,0,1-3.48-1.44,19,19,0,0,0-10.72-3.59c-3.91-.09-6.61-2.22-8.36-5.52a27.18,27.18,0,0,1-2-5.35,23.89,23.89,0,0,1-.83-8.54c.12-1.42-.18-2.37-1.73-2.92a14.23,14.23,0,0,1-6.73-5.19,11,11,0,0,0-5.69-4.17,8.85,8.85,0,0,1-4.27-2.95c-2.84-3.46-5.73-6.87-8.49-10.38-1.77-2.26-3.51-4.57-4-7.53A5.94,5.94,0,0,0,740,937a25.87,25.87,0,0,1-4.16-7c-.88-2-1.76-4.11-2.76-6.1s-2.15-3.92-3.24-5.87a4,4,0,0,0-4.74-2.19c-4.54.9-9.09,1.73-13.67,2.38-3.31.47-6.53,1.57-9.93,1.45-.54-1.62-1.93-2.51-3.12-3.55-4.08-3.58-8.11-7.21-12.31-10.64a7.33,7.33,0,0,1-2.94-7.12,25.74,25.74,0,0,0,0-3.83c-.36-14.86.94-29.69,1-44.54,0-2.24,0-4.48.09-6.72.08-2,.49-2.38,2.66-2.47.64,0,1.28,0,1.92,0,3.82.13,7.62.22,11.45.62,5.22.53,10.53.19,15.81.21a1.27,1.27,0,0,0,.47-.06c.7-.25,1.14-.87.63-1.41-1.77-1.87-1.53-4.13-1.35-6.34.22-2.7.64-5.37.95-8.06.41-3.65.57-7.33,1.27-10.92.47-2.38.52-4.75.82-7.12.22-1.81,1-2.42,2.88-2.5s2.26.27,2.72,1.94c.39,1.38.67,2.79,1.06,4.17s1.06,1.85,2.49,1.58c1.24-.22,2.46-.65,3.68-1s2.44-.75,3.69-1a2,2,0,0,1,2.45,1c2.55,5.21,7.25,8,12.17,10.31,4.14,2,8.47,2.85,12.68-.1a15.18,15.18,0,0,1,1.71-.86c2.12-1.12,3.93-.92,5.53,1A22.17,22.17,0,0,0,783.88,830a4.64,4.64,0,0,1,3.7,2.67,41.46,41.46,0,0,0,4.53,6.75,11.6,11.6,0,0,0,8.36,5.07c3.68.3,7.33.19,10.4,2.73.55.47,1.64-.29,1.68-1.12a11.23,11.23,0,0,0,0-3.33c-.71-2.69-.54-5.4-.6-8.11,0-.95,0-1.91-.11-2.87a1.18,1.18,0,0,0-1.62-1.18,14.66,14.66,0,0,1-7.09,0c-3.8-.89-6.39-3.44-9-6a4.59,4.59,0,0,1-1.28-4.82,60.41,60.41,0,0,1,3.26-10c3.8-8.17,4-9.17,3.24-18a36.38,36.38,0,0,0-1.28-8c-1.5-4.72-.17-8.76,2.07-12.8a6.14,6.14,0,0,1,4.36-3.3c7.61-1.76,15.17-3.74,22.75-5.62a10.47,10.47,0,0,0,4.39-1.67c-.09-.56-.14-1-.25-1.48-1.66-7.22-5.61-13.22-10.32-18.7a32.62,32.62,0,0,1-7.3-14.85A167.32,167.32,0,0,1,810.6,706a129.44,129.44,0,0,1,0-24.82c.51-5.37-.64-10.51-5.49-14a18,18,0,0,1-1.82-1.56c-1.12-1.07-1.25-1.54-.36-2.91a97.92,97.92,0,0,1,9.53-13.18c1.39-1.53,2.67-3.18,4-4.75a4.76,4.76,0,0,0,1.17-3c.28-6.85.59-13.7.89-20.56a21.18,21.18,0,0,0,0-2.39,7.39,7.39,0,0,1,1.48-4.92c2.21-3.13,4.3-6.35,6.32-9.6a39.59,39.59,0,0,1,8.7-9.47c3-2.43,5.66-5.17,8.42-7.83,1.18-1.14,1.11-1.77-.18-2.68a56.88,56.88,0,0,0-5.17-3.47,4.26,4.26,0,0,1-2.42-4.26c.1-4-.08-8,.07-12a5.74,5.74,0,0,0-2.26-5c-1.73-1.41-3.45-2.84-5.16-4.27-3.92-3.28-7.81-6.58-11.75-9.83-1.87-1.54-2-1.63-3.63-.15a7.15,7.15,0,0,1-7.47,1.77c-1.21-.36-2.5-.49-3.73-.8a3.69,3.69,0,0,0-3.6.61c-2.88,2.53-5.87,1.79-8.9.31a3.37,3.37,0,0,1-2.27-2.84,5.66,5.66,0,0,0-2-3.67c-1.34-1.38-2.65-2.78-4.08-4.06a10.28,10.28,0,0,1-3.61-6,9.74,9.74,0,0,0-5.75-7.21,22.15,22.15,0,0,0-4.44-1.75,6,6,0,0,1-4.36-3.95c-1.21-3-2.64-5.82-4-8.72a10.16,10.16,0,0,0-3-3.64,79.13,79.13,0,0,0-8-5.27,22.47,22.47,0,0,1-9.84-11.89c-1.27-3.63-3.89-6.18-8.36-5.58-3.76.5-6.43-1.41-8.55-4.27-.56-.77-1-1.61-1.56-2.41,1.38-.77,1.75-2.24,2.39-3.5q5.11-10,10.18-20.11c.51-1,1-2,1.55-3a3.82,3.82,0,0,1,3.49-2.14c2.88,0,5.76,0,8.64,0a4.09,4.09,0,0,1,3.88,2.34c.15.28.32.55.46.84,3.27,6.45,2,5.35,9,5.3,4.48,0,9,0,13.43,0,.8,0,1.6,0,2.39,0,3.19-.08,3.29-.18,3.46-3.17,0-.8,0-1.6.06-2.4.07-1.09.61-1.88,1.75-1.87,4.46,0,8.94-.29,13.39.35.79.12,1.57.26,2.36.34.94.1,2-.13,2.76.54s.55,1.76.73,2.67c.3,1.46,1,2,2.3,1.67s2.76-.81,4.12-1.26c1.83-.59,3.13-1.64,3-3.79s1-3.25,2.84-3.86c.3-.1.58-.28.88-.37,8.54-2.68,5.56-3.35,13,1.43,2.69,1.73,5.36,3.47,8.06,5.18,1.79,1.13,2.06,1.09,3.51-.74,3.08-3.88,6.12-7.78,9.16-11.69,1.57-2,3.08-4.08,4.69-6.06a5.61,5.61,0,0,0,1.26-4c-.12-2.4-.06-4.8-.23-7.2-.21-3-1-5.67-4-7.14-.38-.19-.61-.66-.88-.95.16-1.05.94-.82,1.5-.85,1.27-.06,2.56,0,3.83,0s2.63.37,3.73-.46.58-2.37.82-3.58c.18-1,.65-1.41,1.64-1.14.61.17,1.21.41,1.83.57,2.68.69,3.72,2.5,4.15,5.17,1.46,9,3.19,17.88,4.7,26.84a4.49,4.49,0,0,0,3,3.89c1,.39,2.12.72,3.13,1.18a4.26,4.26,0,0,1,1.95,1.32c2.14,3.69,4.91,7.16,4.43,11.87a38.76,38.76,0,0,0,0,5.28c.06,1.72.82,2.15,2.55,1.55.15-.05.29-.12.44-.18,4.46-1.7,4.62-1.81,4.51-6.59a99.29,99.29,0,0,0-.66-10.49c-.6-4.7,2.49-7.75,4.62-11.22.8-1.3,2.58-1.16,3.92-1.53a2.58,2.58,0,0,0,2.13-2.21c.5-2.5,1.19-5,1.56-7.49a9.62,9.62,0,0,1,1.79-4.33,98.83,98.83,0,0,0,5.66-8.88,34.16,34.16,0,0,1,9.89-10.92,4.55,4.55,0,0,0,2-3.57c.51-4.75,1.2-9.48,1.74-14.23a35.57,35.57,0,0,0,.24-5.26,144,144,0,0,1,1.67-24.8c1-7.44,2.49-14.77,3.94-22.12.47-2.35,1.53-3.81,4-3.95a3.37,3.37,0,0,0,2.54-1.18c1.89-2.34,4.59-3.39,7.14-4.71.85-.44,1.68-.94,2.56-1.3a8.91,8.91,0,0,0,5.66-6.63,3.86,3.86,0,0,1,1.15-2.56,41.11,41.11,0,0,1,9.55,16.4c1.35,4.43,2.61,8.88,3.72,13.37a11.87,11.87,0,0,0,1.89,4.32c3.12,4.24,6.31,8.45,7.87,13.61.26.87.86,2,2,1.72,1.36-.33.72-1.48.52-2.36a9.57,9.57,0,0,1-.3-1.39c-.09-.85.78-1.31,1.66-1a3.64,3.64,0,0,1,2.36,2.2c.44,1.2.83,2.42,1.38,3.56,1,2.19,1.54,2.49,4.12,1.77a4.54,4.54,0,0,1,5.13,1.52c.42.49.9.91,1.33,1.39,1.43,1.65,3.1,2.73,5.42,2.49a3.18,3.18,0,0,1,2.64.9c3,3,6.67,5.56,8.73,9.48a5.32,5.32,0,0,0,3.54,2.94,5.21,5.21,0,0,1,3.41,2.45,8.39,8.39,0,0,0,2.44,2.24,8.2,8.2,0,0,1,3,3.66,4.24,4.24,0,0,0,3.5,2.82,7.45,7.45,0,0,1,5.37,3.67,15.53,15.53,0,0,0,4.34,5c3.18,2.48,4.22,5.85,3.84,9.8a4.25,4.25,0,0,1-2.11,3.54c-1.38.81-2.81,1.53-4.23,2.26a5.23,5.23,0,0,0-2.38,2.27c-.45.89-.19,1.69.71,1.76a6.94,6.94,0,0,0,1.44,0c4.65-.74,8,1.37,10.82,4.8a24.07,24.07,0,0,1,1.9,2.16c2,3.14,4.84,5.52,7.4,8.15a14.71,14.71,0,0,0,5.72,3.37c2.66,1,5.35.69,8.05.74a8.86,8.86,0,0,0,5.76-2c2.53-1.94,5.16-3.75,7.71-5.67a3.3,3.3,0,0,1,3.13-.77c3.26,1.14,6.64.64,10,.9,4.33.34,7.75-1.46,10.9-4.1a15.08,15.08,0,0,0,1.72-1.67c1.38-1.57,2.8-1.95,5.05-1.49,5.08,1,10.18.9,14.69-2.37a6,6,0,0,1,2.64-1.05,40.4,40.4,0,0,0,6.42-1.87,56.3,56.3,0,0,1,9.3-2.15,27.34,27.34,0,0,0,10.87-3.46,33,33,0,0,0,4.28-3.06c2.16-1.81,4.35-2.39,7.05-1.16a8.51,8.51,0,0,0,4.61,1.12v5.76c-2.62,2.37-2.62,3.22,0,5.76Z"/></g></g></svg>