<svg xmlns="http://www.w3.org/2000/svg" viewBox="0 0 1200 1236"><defs><style>.cls-1{fill:none;}.cls-2{fill:#9f9d9c;}</style></defs><g id="Layer_2" data-name="Layer 2"><g id="svg2"><rect class="cls-1" y="6" width="1200" height="1230"/><path class="cls-2" d="M700.52,447.32h0v0Z"/><polygon class="cls-2" points="712.96 480 712.99 480 712.99 480.01 712.96 480"/><path class="cls-2" d="M950.9,316.78a3.87,3.87,0,0,0-1.16,2.56,8.92,8.92,0,0,1-5.65,6.63c-.89.36-1.72.86-2.57,1.3-2.55,1.32-5.25,2.37-7.14,4.71a3.36,3.36,0,0,1-2.53,1.18c-2.49.14-3.55,1.6-4,3.95-1.46,7.35-2.92,14.68-4,22.12a144,144,0,0,0-1.67,24.8,35.57,35.57,0,0,1-.24,5.26c-.54,4.75-1.23,9.48-1.73,14.23a4.59,4.59,0,0,1-2,3.57A34.16,34.16,0,0,0,908.37,418a98.83,98.83,0,0,1-5.66,8.88,9.73,9.73,0,0,0-1.79,4.33c-.37,2.52-1.06,5-1.56,7.49a2.56,2.56,0,0,1-2.12,2.21c-1.35.37-3.13.23-3.93,1.53-2.13,3.47-5.22,6.52-4.62,11.22a102,102,0,0,1,.67,10.49c.1,4.78-.05,4.89-4.51,6.59l-.45.18c-1.73.6-2.48.17-2.55-1.55a37.21,37.21,0,0,1,0-5.28c.48-4.71-2.3-8.18-4.43-11.87a4.31,4.31,0,0,0-1.95-1.32c-1-.46-2.09-.79-3.14-1.18a4.49,4.49,0,0,1-3-3.89c-1.51-9-3.24-17.88-4.7-26.84-.43-2.67-1.47-4.48-4.15-5.17-.62-.16-1.22-.4-1.83-.57-1-.27-1.46.18-1.64,1.14-.24,1.21.37,2.68-.82,3.58s-2.47.4-3.73.46-2.55,0-3.83,0c-.56,0-1.34-.2-1.5.85.27.29.51.76.88.95,3,1.47,3.77,4.18,4,7.14.17,2.4.11,4.8.23,7.2a5.52,5.52,0,0,1-1.26,4c-1.61,2-3.11,4.05-4.68,6.06-3,3.91-6.09,7.81-9.17,11.69-1.45,1.83-1.72,1.87-3.51.74-2.7-1.71-5.37-3.45-8.06-5.18-7.48-4.78-4.49-4.11-13-1.43-.3.09-.58.27-.88.37-1.87.61-3,1.73-2.83,3.86s-1.13,3.2-3,3.79c-1.36.45-2.72.92-4.11,1.26s-2-.21-2.3-1.67c-.19-.91.11-2-.74-2.67s-1.82-.44-2.75-.54-1.58-.22-2.37-.34c-4.45-.64-8.93-.35-13.39-.35-1.14,0-1.68.78-1.74,1.87,0,.8,0,1.6-.07,2.4-.16,3-.27,3.09-3.45,3.17-.8,0-1.6,0-2.4,0-4.48,0-9,0-13.43,0-7,.05-5.74,1.15-9-5.3-.14-.29-.31-.56-.45-.84a4.11,4.11,0,0,0-3.89-2.34c-2.88,0-5.76,0-8.63,0a3.82,3.82,0,0,0-3.5,2.14c-.55,1-1,2-1.55,3q-5.09,10.06-10.18,20.11c-.64,1.26-1,2.73-2.38,3.5h-.6A12.27,12.27,0,0,0,713,480a4.33,4.33,0,0,0-1.94-1.82l-.08-.11-.71-.88c-.25-3.32-.58-6.66.69-9.86a8.12,8.12,0,0,0-1.06-8.05c-.7-1-1.28-2.19-2-3.2-1.69-2.29-3.45-4.52-5.18-6.77l-1.18-1,0,0h0a1.22,1.22,0,0,0-1-1,3.26,3.26,0,0,0-2-2.85v0h0l-.95-1.14c-.35-.72-.83-1.57.07-2.07,1.73-1,2-2.16,1.27-3.95a9.17,9.17,0,0,0-2.06-3.66,15.1,15.1,0,0,1-3.15-4.7,2.17,2.17,0,0,0-.83-1.73l-.07-.13c-.48-2.66-1-5.31-1.42-8-.29-1.72-.5-3.45-.84-5.16a2.1,2.1,0,0,0-1.45-1.75,1.48,1.48,0,0,0-1.71.44c-1.26.22-2.51.51-3.77.62-.36,0-1.06-.4-1.09-.68-.34-2.67-.88-5.38.66-7.9a10.76,10.76,0,0,0,1.91-6.33c-.23-3,1.07-5.19,3.24-7,1.08-2.65.49-5.37.33-8.07a14.82,14.82,0,0,1,1.26-2.52c1.52-2,3.15-4,4.75-5.92,2.32-2.85,4.66-5.67,3.87-9.75a1.32,1.32,0,0,1,0-.48,1.68,1.68,0,0,1,1.51-1.57c1.26-.12,2.53-.17,3.79-.18,4.13,0,8.16-.85,12.22-1.39.75-1,.44-2.15.45-3.24,0-8.14-.23-16.26-.67-24.39-.45-8.29-.22-16.61-.26-24.92a20.14,20.14,0,0,0-1.52-8.33,4.42,4.42,0,0,0-2.48-2.13c-2.32-1.05-4.68-2-7-3.16C673.48,279.9,642.53,264,611.13,249q-11.24-5.37-22.29-11.12c-2.88-1.5-5.59-2.1-8.66-.76-1.3.57-2.79.67-4.13,1.17-3,1.11-6.22,1.4-9.06,2.95a8.06,8.06,0,0,0-1.4.27,3.83,3.83,0,0,1-5-1.58,21.33,21.33,0,0,0-3-3.11,9.45,9.45,0,0,0-6.49-2.62q-16.29-.37-32.58-1a10.43,10.43,0,0,0-7.15,2.12c-.63.49-1.33.88-2,1.32q-44.48,29.24-89,58.49a40.36,40.36,0,0,1-9.45,4.55,183.24,183.24,0,0,1-30.74,7.21,11.1,11.1,0,0,1-1.91.15,3.18,3.18,0,0,1-3.34-3.76,36.09,36.09,0,0,1,1-4.17,8.25,8.25,0,0,0-1.37-7.27c-1.75-2.28-3.83-3.87-6.87-3.65a7.31,7.31,0,0,1-6.12-2.09,4.65,4.65,0,0,0-3.34-1.65,5.33,5.33,0,0,1-4.63-3,20.8,20.8,0,0,0-7-7.08c-1.21-.76-2.69-1.62-2.94-3-.43-2.52-2.16-3.77-3.94-5.14Q272,214.4,204.12,162.57a21.52,21.52,0,0,0-2.75-1.92.93.93,0,0,0-1.47.62,13.63,13.63,0,0,0-.26,1.42c-.62,4.59-1.21,9.19-1.87,13.77-.29,2-.7,2.33-2.84,2.31-.79,0-1.59-.07-2.39-.14l-28.65-2.51c-4.93-.43-9.86-.9-14.8-1.28-2.05-.15-2.53.24-2.85,2.32-.51,3.32-.88,6.66-1.32,10Q143,201.89,141,216.61c-.28,2-.46,2.18-2.82,2.44a43.63,43.63,0,0,0-7.52,1.37c-6.33,1.87-9.89,6.06-10.89,12.6a84,84,0,0,0-.52,12c0,2.56,0,5.12,0,7.68,0,1.06-.4,1.86-1.61,1.92a17.38,17.38,0,0,1-1.91,0c-9.1-.55-18.18-1.12-27.28-1.65-8.77-.52-17.55-1-26.32-1.51a5.31,5.31,0,0,0-4.69,1.85c-.62.72-1.26,1.43-1.89,2.14l-.45.18c-.55.25-1.06.84-1.74.44s-.48-1.11-.35-1.7A48.13,48.13,0,0,1,56.84,243c1.89-3.71,3.93-7.22,7.54-9.72a14.35,14.35,0,0,0,6.06-8.41c1-4.14,3.51-7.07,6.16-10.07,6.44-7.31,12.83-14.68,19.29-22a16.4,16.4,0,0,0,3.78-7.12,48.71,48.71,0,0,1,3.08-8.55c2.55-5.59,6.25-10,12.14-12.29a21.68,21.68,0,0,0,9.21-7.45c2.42-3.18,5-6.31,6.59-10s4.41-5.3,7.93-6.24c1.54-.41,3.09-.78,4.66-1.05a56.46,56.46,0,0,0,24.44-10.47c1.92-1.42,4-2.68,6-3.94a41.09,41.09,0,0,0,10.85-9.32c3.91-4.92,6.42-10.27,5.36-16.82a15.89,15.89,0,0,1,.79-7.56C193.06,85,196,78.32,202.49,73.93a5.16,5.16,0,0,0,2.65-4.33c-.1-2.54,1.24-4.15,2.86-5.77a65.1,65.1,0,0,1,9.51-8A81.06,81.06,0,0,1,240.39,45c2.76-.8,4.93-2.11,6.29-4.71a36.84,36.84,0,0,1,2.06-3.24c3.39-5,6.51-10.26,10.31-15a28.92,28.92,0,0,1,6.53-6.3,9.15,9.15,0,0,1,3.95-1.61A2.31,2.31,0,0,1,272,15.22c.66,1.1,1.2,2.26,1.86,3.35,3,4.87,7.11,7.7,13,7.28,1-.07,1.92-.07,2.87-.06,3.68,0,7.36,0,11,.18,1.89.1,4,.19,5.6,1.06,3.48,1.88,7.2,2.41,11,3,5.44.86,9.71-.78,12.86-5.33a43.69,43.69,0,0,1,3.14-4.23,4.63,4.63,0,0,1,5.14-1.58A34.07,34.07,0,0,0,344.65,20a5,5,0,0,0,5.25-2.56c1.12-2,3-3.27,5-4.39a25.6,25.6,0,0,1,13.32-3.33A118.54,118.54,0,0,0,385.85,8.3c9.17-1.21,18.26-3.07,27.5-3.88a19.67,19.67,0,0,1,6.63.22,19.7,19.7,0,0,0,9.47.27c3.57-.85,7.18-1.54,10.72-2.49a10.19,10.19,0,0,1,7.88.74c.7.38,1.43.72,2.15,1.06a4.18,4.18,0,0,0,4.15,0c2.91-1.89,5.75-1.34,8.67-.09a34.09,34.09,0,0,0,8.33,2.12c2,.31,4.11.19,5.39-1.27,2-2.24,4.52-3.4,6.9-4.93h7.68c1.26,1.46,3.14,1.39,4.79,1.81a4.66,4.66,0,0,1,3.16,2.65c.64,1.25.38,3.27,1.9,3.69,1.68.46,2.75-1.25,3.92-2.24,2.82-2.38,4-1.06,5.19,1.22a3.37,3.37,0,0,1-.94,4.7c-1.63,1.27-3.53,2.19-5.21,3.41a5.54,5.54,0,0,0,.23,9.21c.66.44,1.36.83,2.05,1.23a6.28,6.28,0,0,1,2.7,2.65c1.69,3.63,2.5,8.63-1.44,12.44q-3.1,3-6.39,5.79c-2.92,2.49-6,4.82-8.87,7.34-1.72,1.49-1.76,2.82-.38,4.6a16.83,16.83,0,0,0,2,2,2.27,2.27,0,0,0,3.06.23c1.33-.89,2.63-1.82,4-2.58,2.09-1.14,3.73-.51,4.5,1.79a47.05,47.05,0,0,1,1.22,5.12c.47,2.18,1.28,4,3.94,4a3,3,0,0,1,2.09,1c2.79,3,6.57,3.79,10.29,4.72a43.64,43.64,0,0,0,13.82.77,18.84,18.84,0,0,1,7.12.62c4.87,1.52,9.8,2.88,14.69,4.39,3.51,1.08,7,2.26,10.46,3.45a1.56,1.56,0,0,1,1.09,2.24,8.08,8.08,0,0,0,1.11,7.74,19.67,19.67,0,0,0,3.46,4c3.5,3,7.69,4.47,12.07,5.56,9,2.24,17.95,4.56,26.95,6.75a10.72,10.72,0,0,1,5.71,3.26,14.5,14.5,0,0,0,4.58,3.44c4.29,2.05,8.35,1.81,12.09-1.27a17.72,17.72,0,0,0,5.25-6.75c1.58-3.68,2.34-7.34-.3-10.91a4.25,4.25,0,0,1-.41-.86A10.35,10.35,0,0,1,643.17,85a31.09,31.09,0,0,1,2.56-2.16,85.52,85.52,0,0,1,9.77-6.07,16.22,16.22,0,0,1,7.76-2.1c7.47-.28,14.59,1.43,21.65,3.58a2.65,2.65,0,0,1,2.24,2.68c0,2.65,1.79,4,4,4.77a31.89,31.89,0,0,0,3.24.79c4.09,1,8.27.68,12.41.87a26.41,26.41,0,0,1,7.55,1.19A7.66,7.66,0,0,1,718.78,92c2.05,3.53,4.7,4.73,8.36,3.61a22.15,22.15,0,0,1,11.37-.15c11.85,2.59,23.68,5.28,35.52,8,6.45,1.46,6.44,1.48,12.1-1.86L799,94c1.25-.74,2.57-1.67,4-.83,1.79,1,3.4.52,5-.19a13.89,13.89,0,0,1,5.12-1,42.35,42.35,0,0,0,4.77-.49A10.36,10.36,0,0,1,827.08,94a17.5,17.5,0,0,0,17.47,3.74,35.07,35.07,0,0,0,7.86-3.52c1-.57,1.91-1.16,2.9-1.69A1.21,1.21,0,0,1,857,93a15.71,15.71,0,0,1,1.2,2.07c4.21,8.61,8.32,17.28,12.66,25.83a13.07,13.07,0,0,1,1.35,8.32c-1,6.15-1.88,12.31-2.86,18.46a8.82,8.82,0,0,1-.86,2.72,3.92,3.92,0,0,1-6.1,1.27,67.86,67.86,0,0,1-10.2-9.41c-.83-1-1.87-1.94-1.94-3.25-.13-2.44-1.61-4.12-2.93-5.9q-4-5.4-8.07-10.74c-.85-1.11-1.47-2.48-2.93-3-2,4.26-2,4.82.94,7.36a5.47,5.47,0,0,1,2.3,4.47,10.32,10.32,0,0,0,1.85,5.37A38.33,38.33,0,0,0,852.46,149c2,1.38,3.27,3,3.18,5.51-.1,2.7,1.16,4.93,2.5,7.13,7.55,12.44,15.2,24.81,22.59,37.34,3.62,6.14,7.76,11.72,13.35,16.16.84.67,1.91,1.26,2,2.57-2.82,1.34-2.83,1.35-2.35,3.69a47.23,47.23,0,0,1,1.37,6.56,7.74,7.74,0,0,0,3.89,6.24q5,3.27,10.09,6.46a37.56,37.56,0,0,1,7.26,5.47c2.06,2.11,3.7,4.55,3.79,7.54a9.35,9.35,0,0,0,3.3,7.15,8.63,8.63,0,0,1,2.68,5.46c1.26,8.2,2.61,16.4,3.95,24.6.46,2.83,1,5.66,1.46,8.49a6.65,6.65,0,0,0,4.66,5.58c.6.21,1.23.37,1.81.62a13.67,13.67,0,0,1,6.4,4.86,5.33,5.33,0,0,0,3.85,2.51C950.28,313.27,951.08,314.74,950.9,316.78Z"/></g></g></svg>