<svg xmlns="http://www.w3.org/2000/svg" viewBox="0 0 1200 1230"><defs><style>.cls-1{fill:none;}.cls-2{fill:#9f9d9c;}</style></defs><g id="Layer_2" data-name="Layer 2"><g id="svg2"><rect class="cls-1" width="1200" height="1230"/><path id="Madagascar" class="cls-2" d="M1071.12,1064.17l48-102.14c3.67-11.52,5.85-23,11.26-34.57,3.68-4.86,8.34-9.37,5.41-16.59l1-9.9c.54-3,2.19-2.94,4.69-.52l1.47,6c1.78-.57,3.54-1.17,3.4-4.14l-4.87-52.94-9.17-10-5.31,4.4-1.38,13.58-3.06,2.7c-1.61-.49-4-2.92-3.27,2.59l-4.55,5c-5.18-9.6-6-1.08-4.54,3.06-.14,1.82.37,4.92-2.09,2.09l-3.71,6,5.27,3.93h-3.12l-6.78,4.91,1-6-6.78,6.78,1.57,8.35-4.57.18.89-3.74c-4.22-2.78-7.66,3.1-11.44,5.12l4.17,6.78-5.22.52-2.08-6.26-8.41,1.38c.26,3-3.13,3.82-6.19,4.88l-.52-4.17-4.7,4.69-8.19.4-1.59,7-11.07,16c8.45,7.43,5,24.2,7.3,36.49-3.12,9.92-9.16,17.5-14.6,25.55-6.33,4.18-9.19,8.36-10.15,12.54-.92,4-2.86,11.88-1.69,15.89,1.37,4.68,4,3.09,4.07,7.76l1.54,7.67c-7.74,29.8,11.52,29.35,15.67,36.63,1.89-.86,4.28.6,6.13-.4,4.09-2.2,9.32-7.66,14.79-5.85C1064.35,1067.45,1067.78,1065.72,1071.12,1064.17Z"/></g></g></svg>